<!-- Generated by IcoMoon.io -->
<svg version="1.1" xmlns="http://www.w3.org/2000/svg" width="16" height="16" viewBox="0 0 768 768">
<title></title>
<g id="icomoon-ignore">
</g>
<path d="M96 240v480c0 26.4 21.6 48 48 48h432c26.4 0 48-21.6 48-48v-480h-528zM240 672h-48v-336h48v336zM336 672h-48v-336h48v336zM432 672h-48v-336h48v336zM528 672h-48v-336h48v336z"></path>
<path d="M636 96h-156v-60c0-19.8-16.2-36-36-36h-168c-19.8 0-36 16.2-36 36v60h-156c-19.8 0-36 16.2-36 36v60h624v-60c0-19.8-16.2-36-36-36zM432 96h-144v-47.399h144v47.399z"></path>
</svg>
